<mxfile host="app.diagrams.net" modified="2024-01-20T03:09:58.739Z" agent="Mozilla/5.0 (Windows NT 10.0; Win64; x64) AppleWebKit/537.36 (KHTML, like Gecko) Chrome/120.0.0.0 Safari/537.36" etag="ePGoYkMV99NFZVUApckD" version="22.1.21" type="github">
  <diagram name="Page-1" id="42789a77-a242-8287-6e28-9cd8cfd52e62">
    <mxGraphModel dx="1018" dy="1393" grid="1" gridSize="10" guides="1" tooltips="1" connect="1" arrows="1" fold="1" page="1" pageScale="1" pageWidth="1100" pageHeight="850" background="none" math="0" shadow="0">
      <root>
        <mxCell id="0" />
        <mxCell id="1" parent="0" />
        <mxCell id="1ea317790d2ca983-1" value="Entity Manager (JPA)" style="ellipse;whiteSpace=wrap;html=1;rounded=0;shadow=1;comic=0;labelBackgroundColor=none;strokeWidth=1;fontFamily=Verdana;fontSize=12;align=center;" parent="1" vertex="1">
          <mxGeometry x="450" y="80" width="90" height="60" as="geometry" />
        </mxCell>
        <mxCell id="sM9CgdUnftXWpu6EReia-3" style="edgeStyle=orthogonalEdgeStyle;rounded=0;orthogonalLoop=1;jettySize=auto;html=1;exitX=0.5;exitY=0;exitDx=0;exitDy=0;entryX=0.5;entryY=1;entryDx=0;entryDy=0;" edge="1" parent="1" source="sM9CgdUnftXWpu6EReia-1" target="1ea317790d2ca983-1">
          <mxGeometry relative="1" as="geometry" />
        </mxCell>
        <mxCell id="sM9CgdUnftXWpu6EReia-4" value="extends and has a more func" style="edgeLabel;html=1;align=center;verticalAlign=middle;resizable=0;points=[];" vertex="1" connectable="0" parent="sM9CgdUnftXWpu6EReia-3">
          <mxGeometry x="0.0472" y="1" relative="1" as="geometry">
            <mxPoint as="offset" />
          </mxGeometry>
        </mxCell>
        <mxCell id="sM9CgdUnftXWpu6EReia-1" value="Session" style="ellipse;whiteSpace=wrap;html=1;rounded=0;shadow=1;comic=0;labelBackgroundColor=none;strokeWidth=1;fontFamily=Verdana;fontSize=12;align=center;" vertex="1" parent="1">
          <mxGeometry x="450" y="220" width="90" height="60" as="geometry" />
        </mxCell>
        <mxCell id="sM9CgdUnftXWpu6EReia-11" value="creates" style="edgeStyle=orthogonalEdgeStyle;rounded=0;orthogonalLoop=1;jettySize=auto;html=1;entryX=1;entryY=0.5;entryDx=0;entryDy=0;" edge="1" parent="1" source="sM9CgdUnftXWpu6EReia-5" target="1ea317790d2ca983-1">
          <mxGeometry relative="1" as="geometry" />
        </mxCell>
        <mxCell id="sM9CgdUnftXWpu6EReia-5" value="Entity Manager Factory (JPA)" style="ellipse;whiteSpace=wrap;html=1;rounded=0;shadow=1;comic=0;labelBackgroundColor=none;strokeWidth=1;fontFamily=Verdana;fontSize=12;align=center;" vertex="1" parent="1">
          <mxGeometry x="700" y="80" width="90" height="60" as="geometry" />
        </mxCell>
        <mxCell id="sM9CgdUnftXWpu6EReia-9" style="edgeStyle=orthogonalEdgeStyle;rounded=0;orthogonalLoop=1;jettySize=auto;html=1;exitX=0;exitY=0.5;exitDx=0;exitDy=0;entryX=1;entryY=0.5;entryDx=0;entryDy=0;" edge="1" parent="1" source="sM9CgdUnftXWpu6EReia-6" target="sM9CgdUnftXWpu6EReia-1">
          <mxGeometry relative="1" as="geometry" />
        </mxCell>
        <mxCell id="sM9CgdUnftXWpu6EReia-10" value="creates" style="edgeLabel;html=1;align=center;verticalAlign=middle;resizable=0;points=[];" vertex="1" connectable="0" parent="sM9CgdUnftXWpu6EReia-9">
          <mxGeometry x="0.1268" y="-2" relative="1" as="geometry">
            <mxPoint as="offset" />
          </mxGeometry>
        </mxCell>
        <mxCell id="sM9CgdUnftXWpu6EReia-6" value="Session Factory" style="ellipse;whiteSpace=wrap;html=1;rounded=0;shadow=1;comic=0;labelBackgroundColor=none;strokeWidth=1;fontFamily=Verdana;fontSize=12;align=center;" vertex="1" parent="1">
          <mxGeometry x="710" y="220" width="90" height="60" as="geometry" />
        </mxCell>
        <mxCell id="sM9CgdUnftXWpu6EReia-7" style="edgeStyle=orthogonalEdgeStyle;rounded=0;orthogonalLoop=1;jettySize=auto;html=1;entryX=0.621;entryY=1.015;entryDx=0;entryDy=0;entryPerimeter=0;" edge="1" parent="1" source="sM9CgdUnftXWpu6EReia-6" target="sM9CgdUnftXWpu6EReia-5">
          <mxGeometry relative="1" as="geometry" />
        </mxCell>
        <mxCell id="sM9CgdUnftXWpu6EReia-8" value="extends and has a more func" style="edgeLabel;html=1;align=center;verticalAlign=middle;resizable=0;points=[];" vertex="1" connectable="0" parent="sM9CgdUnftXWpu6EReia-7">
          <mxGeometry x="0.0283" relative="1" as="geometry">
            <mxPoint as="offset" />
          </mxGeometry>
        </mxCell>
        <mxCell id="sM9CgdUnftXWpu6EReia-13" style="edgeStyle=orthogonalEdgeStyle;rounded=0;orthogonalLoop=1;jettySize=auto;html=1;" edge="1" parent="1" source="sM9CgdUnftXWpu6EReia-12" target="1ea317790d2ca983-1">
          <mxGeometry relative="1" as="geometry" />
        </mxCell>
        <mxCell id="sM9CgdUnftXWpu6EReia-14" style="edgeStyle=orthogonalEdgeStyle;rounded=0;orthogonalLoop=1;jettySize=auto;html=1;exitX=1;exitY=0.5;exitDx=0;exitDy=0;entryX=1.004;entryY=0.626;entryDx=0;entryDy=0;entryPerimeter=0;" edge="1" parent="1" source="sM9CgdUnftXWpu6EReia-12" target="sM9CgdUnftXWpu6EReia-6">
          <mxGeometry relative="1" as="geometry">
            <Array as="points">
              <mxPoint x="840" y="-70" />
              <mxPoint x="840" y="258" />
            </Array>
          </mxGeometry>
        </mxCell>
        <mxCell id="sM9CgdUnftXWpu6EReia-12" value="One Per DB &amp;amp;get db prop from config" style="ellipse;whiteSpace=wrap;html=1;rounded=0;shadow=1;comic=0;labelBackgroundColor=none;strokeWidth=1;fontFamily=Verdana;fontSize=12;align=center;" vertex="1" parent="1">
          <mxGeometry x="570" y="-100" width="90" height="60" as="geometry" />
        </mxCell>
        <mxCell id="sM9CgdUnftXWpu6EReia-16" style="edgeStyle=orthogonalEdgeStyle;rounded=0;orthogonalLoop=1;jettySize=auto;html=1;entryX=0.5;entryY=0;entryDx=0;entryDy=0;" edge="1" parent="1" source="sM9CgdUnftXWpu6EReia-15" target="1ea317790d2ca983-1">
          <mxGeometry relative="1" as="geometry" />
        </mxCell>
        <mxCell id="sM9CgdUnftXWpu6EReia-15" value="2nd level cache needs config. eg redis, ecache&amp;nbsp;&lt;br&gt;&amp;nbsp;" style="ellipse;whiteSpace=wrap;html=1;rounded=0;shadow=1;comic=0;labelBackgroundColor=none;strokeWidth=1;fontFamily=Verdana;fontSize=12;align=center;" vertex="1" parent="1">
          <mxGeometry x="570" y="-20" width="110" height="70" as="geometry" />
        </mxCell>
        <mxCell id="sM9CgdUnftXWpu6EReia-17" style="edgeStyle=orthogonalEdgeStyle;rounded=0;orthogonalLoop=1;jettySize=auto;html=1;exitX=1;exitY=0.5;exitDx=0;exitDy=0;entryX=0.991;entryY=0.626;entryDx=0;entryDy=0;entryPerimeter=0;" edge="1" parent="1" source="sM9CgdUnftXWpu6EReia-15" target="sM9CgdUnftXWpu6EReia-6">
          <mxGeometry relative="1" as="geometry">
            <Array as="points">
              <mxPoint x="840" y="15" />
              <mxPoint x="840" y="258" />
            </Array>
          </mxGeometry>
        </mxCell>
        <mxCell id="sM9CgdUnftXWpu6EReia-19" style="edgeStyle=orthogonalEdgeStyle;rounded=0;orthogonalLoop=1;jettySize=auto;html=1;exitX=0;exitY=0.5;exitDx=0;exitDy=0;entryX=0.5;entryY=1;entryDx=0;entryDy=0;" edge="1" parent="1" source="sM9CgdUnftXWpu6EReia-18" target="sM9CgdUnftXWpu6EReia-1">
          <mxGeometry relative="1" as="geometry" />
        </mxCell>
        <mxCell id="sM9CgdUnftXWpu6EReia-18" value="closeable (lives until closed)" style="ellipse;whiteSpace=wrap;html=1;rounded=0;shadow=1;comic=0;labelBackgroundColor=none;strokeWidth=1;fontFamily=Verdana;fontSize=12;align=center;" vertex="1" parent="1">
          <mxGeometry x="650" y="290" width="90" height="60" as="geometry" />
        </mxCell>
        <mxCell id="sM9CgdUnftXWpu6EReia-20" style="edgeStyle=orthogonalEdgeStyle;rounded=0;orthogonalLoop=1;jettySize=auto;html=1;exitX=0.5;exitY=0;exitDx=0;exitDy=0;entryX=-0.002;entryY=0.709;entryDx=0;entryDy=0;entryPerimeter=0;" edge="1" parent="1" source="sM9CgdUnftXWpu6EReia-18" target="sM9CgdUnftXWpu6EReia-5">
          <mxGeometry relative="1" as="geometry">
            <Array as="points">
              <mxPoint x="615" y="123" />
            </Array>
          </mxGeometry>
        </mxCell>
        <mxCell id="sM9CgdUnftXWpu6EReia-22" style="edgeStyle=orthogonalEdgeStyle;rounded=0;orthogonalLoop=1;jettySize=auto;html=1;exitX=0;exitY=0.5;exitDx=0;exitDy=0;entryX=0.5;entryY=1;entryDx=0;entryDy=0;" edge="1" parent="1" source="sM9CgdUnftXWpu6EReia-21" target="sM9CgdUnftXWpu6EReia-1">
          <mxGeometry relative="1" as="geometry" />
        </mxCell>
        <mxCell id="sM9CgdUnftXWpu6EReia-21" value="1st level caching (configed by default)" style="ellipse;whiteSpace=wrap;html=1;rounded=0;shadow=1;comic=0;labelBackgroundColor=none;strokeWidth=1;fontFamily=Verdana;fontSize=12;align=center;" vertex="1" parent="1">
          <mxGeometry x="565" y="350" width="100" height="70" as="geometry" />
        </mxCell>
        <mxCell id="sM9CgdUnftXWpu6EReia-23" style="edgeStyle=orthogonalEdgeStyle;rounded=0;orthogonalLoop=1;jettySize=auto;html=1;exitX=0.5;exitY=0;exitDx=0;exitDy=0;entryX=0.01;entryY=0.709;entryDx=0;entryDy=0;entryPerimeter=0;" edge="1" parent="1" source="sM9CgdUnftXWpu6EReia-21" target="sM9CgdUnftXWpu6EReia-5">
          <mxGeometry relative="1" as="geometry" />
        </mxCell>
        <mxCell id="sM9CgdUnftXWpu6EReia-25" style="edgeStyle=orthogonalEdgeStyle;rounded=0;orthogonalLoop=1;jettySize=auto;html=1;exitX=0;exitY=0.5;exitDx=0;exitDy=0;entryX=0.5;entryY=1;entryDx=0;entryDy=0;" edge="1" parent="1" source="sM9CgdUnftXWpu6EReia-24" target="sM9CgdUnftXWpu6EReia-1">
          <mxGeometry relative="1" as="geometry" />
        </mxCell>
        <mxCell id="sM9CgdUnftXWpu6EReia-26" value="created by" style="edgeLabel;html=1;align=center;verticalAlign=middle;resizable=0;points=[];" vertex="1" connectable="0" parent="sM9CgdUnftXWpu6EReia-25">
          <mxGeometry x="-0.6557" y="1" relative="1" as="geometry">
            <mxPoint as="offset" />
          </mxGeometry>
        </mxCell>
        <mxCell id="sM9CgdUnftXWpu6EReia-27" style="edgeStyle=orthogonalEdgeStyle;rounded=0;orthogonalLoop=1;jettySize=auto;html=1;exitX=0;exitY=0.5;exitDx=0;exitDy=0;entryX=0.5;entryY=0;entryDx=0;entryDy=0;" edge="1" parent="1" source="sM9CgdUnftXWpu6EReia-24" target="sM9CgdUnftXWpu6EReia-5">
          <mxGeometry relative="1" as="geometry">
            <Array as="points">
              <mxPoint x="550" y="505" />
              <mxPoint x="550" y="60" />
              <mxPoint x="745" y="60" />
            </Array>
          </mxGeometry>
        </mxCell>
        <mxCell id="sM9CgdUnftXWpu6EReia-30" value="created by" style="edgeLabel;html=1;align=center;verticalAlign=middle;resizable=0;points=[];" vertex="1" connectable="0" parent="sM9CgdUnftXWpu6EReia-27">
          <mxGeometry x="-0.7804" y="2" relative="1" as="geometry">
            <mxPoint as="offset" />
          </mxGeometry>
        </mxCell>
        <mxCell id="sM9CgdUnftXWpu6EReia-24" value="Transaction" style="ellipse;whiteSpace=wrap;html=1;rounded=0;shadow=1;comic=0;labelBackgroundColor=none;strokeWidth=1;fontFamily=Verdana;fontSize=12;align=center;" vertex="1" parent="1">
          <mxGeometry x="565" y="470" width="100" height="70" as="geometry" />
        </mxCell>
        <mxCell id="sM9CgdUnftXWpu6EReia-28" style="edgeStyle=orthogonalEdgeStyle;rounded=0;orthogonalLoop=1;jettySize=auto;html=1;exitX=1;exitY=0.5;exitDx=0;exitDy=0;entryX=1.004;entryY=0.413;entryDx=0;entryDy=0;entryPerimeter=0;" edge="1" parent="1" source="sM9CgdUnftXWpu6EReia-24" target="sM9CgdUnftXWpu6EReia-18">
          <mxGeometry relative="1" as="geometry" />
        </mxCell>
        <mxCell id="sM9CgdUnftXWpu6EReia-29" value="is a" style="edgeLabel;html=1;align=center;verticalAlign=middle;resizable=0;points=[];" vertex="1" connectable="0" parent="sM9CgdUnftXWpu6EReia-28">
          <mxGeometry x="0.1643" y="3" relative="1" as="geometry">
            <mxPoint as="offset" />
          </mxGeometry>
        </mxCell>
        <mxCell id="sM9CgdUnftXWpu6EReia-31" value="Caching" style="ellipse;whiteSpace=wrap;html=1;rounded=0;shadow=1;comic=0;labelBackgroundColor=none;strokeWidth=1;fontFamily=Verdana;fontSize=12;align=center;" vertex="1" parent="1">
          <mxGeometry x="880" y="370" width="100" height="70" as="geometry" />
        </mxCell>
        <mxCell id="sM9CgdUnftXWpu6EReia-34" style="edgeStyle=orthogonalEdgeStyle;rounded=0;orthogonalLoop=1;jettySize=auto;html=1;exitX=0.5;exitY=0;exitDx=0;exitDy=0;entryX=0.5;entryY=1;entryDx=0;entryDy=0;" edge="1" parent="1" source="sM9CgdUnftXWpu6EReia-32" target="sM9CgdUnftXWpu6EReia-31">
          <mxGeometry relative="1" as="geometry">
            <Array as="points">
              <mxPoint x="870" y="480" />
              <mxPoint x="930" y="480" />
            </Array>
          </mxGeometry>
        </mxCell>
        <mxCell id="sM9CgdUnftXWpu6EReia-39" style="edgeStyle=orthogonalEdgeStyle;rounded=0;orthogonalLoop=1;jettySize=auto;html=1;entryX=1;entryY=0.5;entryDx=0;entryDy=0;" edge="1" parent="1" source="sM9CgdUnftXWpu6EReia-32" target="sM9CgdUnftXWpu6EReia-21">
          <mxGeometry relative="1" as="geometry" />
        </mxCell>
        <mxCell id="sM9CgdUnftXWpu6EReia-40" value="used caching startegy" style="edgeLabel;html=1;align=center;verticalAlign=middle;resizable=0;points=[];" vertex="1" connectable="0" parent="sM9CgdUnftXWpu6EReia-39">
          <mxGeometry x="-0.3883" y="2" relative="1" as="geometry">
            <mxPoint as="offset" />
          </mxGeometry>
        </mxCell>
        <mxCell id="sM9CgdUnftXWpu6EReia-32" value="On first every first retrival" style="ellipse;whiteSpace=wrap;html=1;rounded=0;shadow=1;comic=0;labelBackgroundColor=none;strokeWidth=1;fontFamily=Verdana;fontSize=12;align=center;" vertex="1" parent="1">
          <mxGeometry x="820" y="500" width="100" height="70" as="geometry" />
        </mxCell>
        <mxCell id="sM9CgdUnftXWpu6EReia-36" style="edgeStyle=orthogonalEdgeStyle;rounded=0;orthogonalLoop=1;jettySize=auto;html=1;exitX=0.5;exitY=0;exitDx=0;exitDy=0;entryX=0.5;entryY=1;entryDx=0;entryDy=0;" edge="1" parent="1" source="sM9CgdUnftXWpu6EReia-33" target="sM9CgdUnftXWpu6EReia-31">
          <mxGeometry relative="1" as="geometry">
            <Array as="points">
              <mxPoint x="1010" y="480" />
              <mxPoint x="930" y="480" />
            </Array>
          </mxGeometry>
        </mxCell>
        <mxCell id="sM9CgdUnftXWpu6EReia-37" value="caching starategy" style="edgeLabel;html=1;align=center;verticalAlign=middle;resizable=0;points=[];" vertex="1" connectable="0" parent="sM9CgdUnftXWpu6EReia-36">
          <mxGeometry x="0.7266" y="-3" relative="1" as="geometry">
            <mxPoint as="offset" />
          </mxGeometry>
        </mxCell>
        <mxCell id="sM9CgdUnftXWpu6EReia-41" style="edgeStyle=orthogonalEdgeStyle;rounded=0;orthogonalLoop=1;jettySize=auto;html=1;exitX=1;exitY=0.5;exitDx=0;exitDy=0;entryX=1;entryY=0.5;entryDx=0;entryDy=0;" edge="1" parent="1" source="sM9CgdUnftXWpu6EReia-33" target="sM9CgdUnftXWpu6EReia-15">
          <mxGeometry relative="1" as="geometry" />
        </mxCell>
        <mxCell id="sM9CgdUnftXWpu6EReia-42" value="used caching startegy" style="edgeLabel;html=1;align=center;verticalAlign=middle;resizable=0;points=[];" vertex="1" connectable="0" parent="sM9CgdUnftXWpu6EReia-41">
          <mxGeometry x="-0.782" y="-1" relative="1" as="geometry">
            <mxPoint as="offset" />
          </mxGeometry>
        </mxCell>
        <mxCell id="sM9CgdUnftXWpu6EReia-33" value="Based on condition" style="ellipse;whiteSpace=wrap;html=1;rounded=0;shadow=1;comic=0;labelBackgroundColor=none;strokeWidth=1;fontFamily=Verdana;fontSize=12;align=center;" vertex="1" parent="1">
          <mxGeometry x="960" y="500" width="100" height="70" as="geometry" />
        </mxCell>
        <mxCell id="sM9CgdUnftXWpu6EReia-45" style="edgeStyle=orthogonalEdgeStyle;rounded=0;orthogonalLoop=1;jettySize=auto;html=1;exitX=0.5;exitY=0;exitDx=0;exitDy=0;entryX=0.5;entryY=1;entryDx=0;entryDy=0;" edge="1" parent="1" source="sM9CgdUnftXWpu6EReia-43" target="sM9CgdUnftXWpu6EReia-33">
          <mxGeometry relative="1" as="geometry">
            <Array as="points">
              <mxPoint x="890" y="640" />
              <mxPoint x="1010" y="640" />
            </Array>
          </mxGeometry>
        </mxCell>
        <mxCell id="sM9CgdUnftXWpu6EReia-48" value="Enityt level annon: &lt;br&gt;Specificies if the Entity&lt;br&gt;should be cached" style="edgeLabel;html=1;align=center;verticalAlign=middle;resizable=0;points=[];" vertex="1" connectable="0" parent="sM9CgdUnftXWpu6EReia-45">
          <mxGeometry x="-0.7404" y="-2" relative="1" as="geometry">
            <mxPoint as="offset" />
          </mxGeometry>
        </mxCell>
        <mxCell id="sM9CgdUnftXWpu6EReia-43" value="@Cachable" style="ellipse;whiteSpace=wrap;html=1;rounded=0;shadow=1;comic=0;labelBackgroundColor=none;strokeWidth=1;fontFamily=Verdana;fontSize=12;align=center;" vertex="1" parent="1">
          <mxGeometry x="840" y="700" width="100" height="70" as="geometry" />
        </mxCell>
        <mxCell id="sM9CgdUnftXWpu6EReia-46" style="edgeStyle=orthogonalEdgeStyle;rounded=0;orthogonalLoop=1;jettySize=auto;html=1;exitX=0.5;exitY=0;exitDx=0;exitDy=0;entryX=0.5;entryY=1;entryDx=0;entryDy=0;" edge="1" parent="1" source="sM9CgdUnftXWpu6EReia-44" target="sM9CgdUnftXWpu6EReia-33">
          <mxGeometry relative="1" as="geometry">
            <mxPoint x="1010" y="560" as="targetPoint" />
            <Array as="points">
              <mxPoint x="1100" y="640" />
              <mxPoint x="1010" y="640" />
            </Array>
          </mxGeometry>
        </mxCell>
        <mxCell id="sM9CgdUnftXWpu6EReia-49" value="Entity level anon: specifys&lt;br&gt;on what operations to cache the entity" style="edgeLabel;html=1;align=center;verticalAlign=middle;resizable=0;points=[];" vertex="1" connectable="0" parent="sM9CgdUnftXWpu6EReia-46">
          <mxGeometry x="-0.7347" y="1" relative="1" as="geometry">
            <mxPoint as="offset" />
          </mxGeometry>
        </mxCell>
        <mxCell id="sM9CgdUnftXWpu6EReia-44" value="@Cache(ReadONly or ReadWrite)" style="ellipse;whiteSpace=wrap;html=1;rounded=0;shadow=1;comic=0;labelBackgroundColor=none;strokeWidth=1;fontFamily=Verdana;fontSize=12;align=center;" vertex="1" parent="1">
          <mxGeometry x="1050" y="702" width="100" height="70" as="geometry" />
        </mxCell>
      </root>
    </mxGraphModel>
  </diagram>
</mxfile>
